<?xml version="1.0" encoding="UTF-8" standalone="no"?> <svg width="64" height="64" viewBox="0 0 64 64" fill="none" xmlns="http://www.w3.org/2000/svg">
<path d="M61 37C61.2652 37 61.5196 36.8947 61.7071 36.7071C61.8946 36.5196 62 36.2652 62 36V32C62 31.7348 61.8946 31.4804 61.7071 31.2929C61.5196 31.1054 61.2652 31 61 31H56.24C54.3803 27.781 51.898 24.9647 48.938 22.7155C45.978 20.4663 42.5996 18.8293 39 17.9V14C39 13.7348 38.8946 13.4804 38.7071 13.2929C38.5196 13.1054 38.2652 13 38 13H33V9.20001C33.3168 9.3552 33.6125 9.5501 33.88 9.78001C34.7297 10.5643 35.8436 10.9998 37 10.9998C38.1564 10.9998 39.2703 10.5643 40.12 9.78001C40.3648 9.53024 40.6575 9.33243 40.9805 9.1984C41.3035 9.06438 41.6503 8.9969 42 9.00001C42.2652 9.00001 42.5196 8.89466 42.7071 8.70712C42.8946 8.51958 43 8.26523 43 8.00001V3.00001C43 2.7348 42.8946 2.48044 42.7071 2.29291C42.5196 2.10537 42.2652 2.00001 42 2.00001C40.8419 1.99101 39.7248 2.42785 38.88 3.22001C38.6333 3.46722 38.3403 3.66335 38.0177 3.79717C37.6951 3.93099 37.3492 3.99987 37 3.99987C36.6508 3.99987 36.3049 3.93099 35.9823 3.79717C35.6597 3.66335 35.3667 3.46722 35.12 3.22001C34.2752 2.42785 33.1581 1.99101 32 2.00001C31.7348 2.00001 31.4804 2.10537 31.2929 2.29291C31.1054 2.48044 31 2.7348 31 3.00001V13H26C25.7348 13 25.4804 13.1054 25.2929 13.2929C25.1054 13.4804 25 13.7348 25 14V17.9C21.4004 18.8293 18.022 20.4663 15.062 22.7155C12.102 24.9647 9.61967 27.781 7.76 31H3C2.73478 31 2.48043 31.1054 2.29289 31.2929C2.10536 31.4804 2 31.7348 2 32V36C2 36.2652 2.10536 36.5196 2.29289 36.7071C2.48043 36.8947 2.73478 37 3 37H4V56H3C2.73478 56 2.48043 56.1054 2.29289 56.2929C2.10536 56.4804 2 56.7348 2 57V61C2 61.2652 2.10536 61.5196 2.29289 61.7071C2.48043 61.8947 2.73478 62 3 62H61C61.2652 62 61.5196 61.8947 61.7071 61.7071C61.8946 61.5196 62 61.2652 62 61V57C62 56.7348 61.8946 56.4804 61.7071 56.2929C61.5196 56.1054 61.2652 56 61 56H60V37H61ZM33 4.19001C33.3162 4.35024 33.6117 4.54836 33.88 4.78001C34.7297 5.56432 35.8436 5.99984 37 5.99984C38.1564 5.99984 39.2703 5.56432 40.12 4.78001C40.3883 4.54836 40.6838 4.35024 41 4.19001V7.10001C40.2102 7.28866 39.4809 7.67393 38.88 8.22001C38.6333 8.46722 38.3403 8.66335 38.0177 8.79717C37.6951 8.93099 37.3492 8.99987 37 8.99987C36.6508 8.99987 36.3049 8.93099 35.9823 8.79717C35.6597 8.66335 35.3667 8.46722 35.12 8.22001C34.5191 7.67393 33.7898 7.28866 33 7.10001V4.19001ZM27 15H37V17.46C33.6949 16.8466 30.3051 16.8466 27 17.46V15ZM32 19C36.3659 18.9998 40.6615 20.099 44.4906 22.1962C48.3198 24.2935 51.5592 27.3211 53.91 31H10.09C12.4408 27.3211 15.6802 24.2935 19.5094 22.1962C23.3385 20.099 27.6341 18.9998 32 19V19ZM60 60H4V58H60V60ZM6 56V37H10V56H6ZM12 56V37H16V56H12ZM18 56V37H22V56H18ZM24 56V37H28V56H24ZM30 56V37H34V56H30ZM36 56V37H40V56H36ZM42 56V37H46V56H42ZM48 56V37H52V56H48ZM54 56V37H58V56H54ZM4 35V33H60V35H4Z" fill="black"/>
</svg>
