<svg id="e8oLgSxW1KV1" xmlns="http://www.w3.org/2000/svg" xmlns:xlink="http://www.w3.org/1999/xlink" viewBox="0 0 72 72" shape-rendering="geometricPrecision" text-rendering="geometricPrecision"><g transform="translate(-5.782252-7.874877)"><path d="M8,72h56c4.418278,0,8-3.581722,8-8v-56c0-4.418278-3.581722-8-8-8L8,0C3.581722,0,0,3.581722,0,8v56c0,4.418278,3.581722,8,8,8Z" transform="translate(5.782252 7.874877)" fill="#fff" fill-rule="evenodd"/><path d="M62,62h-10.684375v-18.197885c0-4.989361-1.895833-7.777583-5.844922-7.777583-4.296094,0-6.540625,2.901578-6.540625,7.777583v18.197885h-10.296745v-34.666667h10.296745v4.669595c0,0,3.095964-5.728713,10.452474-5.728713C56.735677,26.274215,62,30.764471,62,40.051212L62,62ZM16.349349,22.794013C12.842057,22.794013,10,19.929657,10,16.397007s2.842057-6.397007,6.349349-6.397007s6.347656,2.864357,6.347656,6.397007-2.840364,6.397006-6.347656,6.397006ZM11.032552,62h10.736849v-34.666667h-10.736849v34.666667Z" transform="translate(5.782252 7.874877)" fill="none" fill-rule="evenodd"/></g></svg>
