<?xml version="1.0" encoding="UTF-8"?><svg id="Layer_1" xmlns="http://www.w3.org/2000/svg" viewBox="0 0 38.68 29.06"><path d="M19.35,27.56c-1.48,0-2.72-1.43-3.54-4.07-1.34,.88-2.9,1.37-4.5,1.41-1.47,.04-2.9-.52-3.95-1.55-1.85-1.84-2.06-4.85-.59-7.67l-.32-.31c-1.98-1.9-3.5-4.23-4.45-6.81-.85-2.51-.6-4.56,.68-5.88,.86-.8,2-1.23,3.17-1.18,2.82,0,6.47,1.89,9.52,4.94,.28,.28,.55,.57,.82,.87,1-2.45,2.22-3,3.16-3s2.17,.57,3.16,3c.25-.29,.52-.57,.8-.85,3.05-3.07,6.69-4.96,9.52-4.96,1.17-.05,2.31,.38,3.17,1.18,1.28,1.28,1.53,3.37,.69,5.88-.96,2.58-2.48,4.9-4.46,6.81-.12,.13-.26,.25-.39,.38,1.42,2.8,1.2,5.78-.62,7.6-1.07,1.04-2.51,1.6-4,1.55h0c-1.56-.03-3.09-.5-4.4-1.35-.82,2.6-2,4.01-3.47,4.01Z" stroke="#fff" stroke-miterlimit="10" stroke-width="3"/><path d="M31.54,14.67c4.15-4.16,5.84-9.21,3.76-11.29s-7.14-.38-11.3,3.76c-.68,.67-1.3,1.39-1.88,2.15-.65-2.44-1.66-4-2.78-4s-2.13,1.57-2.78,4c-.59-.76-1.22-1.49-1.9-2.17C10.52,3,5.46,1.3,3.38,3.38c-2.08,2.08-.38,7.13,3.76,11.29,.29,.29,.58,.56,.87,.82-1.59,2.51-1.66,5.51,.04,7.17,2,2,5.61,1.56,8.34-.84,.64,2.86,1.73,4.75,3,4.75s2.3-1.84,2.94-4.66c2.72,2.32,6.28,2.69,8.23,.75,1.68-1.69,1.63-4.59,.08-7.11,.27-.28,.59-.55,.9-.88Z" fill="#fff"/><ellipse cx="25.5" cy="17.65" rx="5.32" ry="7.1" transform="translate(-5.01 23.2) rotate(-45)" fill="#ec63a0" isolation="isolate" opacity=".9"/><ellipse cx="27.77" cy="10.91" rx="10.65" ry="5.32" transform="translate(.42 22.83) rotate(-45)" fill="#0092d1" isolation="isolate" opacity=".9"/><ellipse cx="13.07" cy="17.65" rx="7.1" ry="5.32" transform="translate(-8.65 14.41) rotate(-45)" fill="#ec63a0" isolation="isolate" opacity=".9"/><ellipse cx="10.91" cy="10.91" rx="5.32" ry="10.65" transform="translate(-4.52 10.91) rotate(-45)" fill="#0092d1" isolation="isolate" opacity=".9"/><ellipse cx="19.35" cy="15.92" rx="3.55" ry="10.65" fill="#fbd981"/></svg>