<?xml version="1.0" encoding="UTF-8" standalone="no"?> <svg width="512" height="512" viewBox="0 0 512 512" fill="none" xmlns="http://www.w3.org/2000/svg">
<path d="M363.331 194.359C350.915 169.527 330.273 149.769 304.923 138.45C279.572 127.132 251.081 124.954 224.304 132.286C197.528 139.619 174.122 156.01 158.075 178.665C142.029 201.321 134.334 228.839 136.302 256.532C138.27 284.225 149.779 310.378 168.869 330.537C187.958 350.695 213.447 363.61 240.992 367.083C268.536 370.555 296.433 364.369 319.928 349.579C343.423 334.789 361.063 312.31 369.842 285.972C379.891 255.777 377.549 222.829 363.331 194.359V194.359ZM354.663 280.912C347.054 303.735 331.767 323.213 311.406 336.028C291.046 348.843 266.872 354.202 243.003 351.192C219.135 348.182 197.048 336.99 180.507 319.521C163.965 302.053 153.992 279.389 152.287 255.392C150.582 231.395 157.25 207.549 171.155 187.917C185.06 168.285 205.342 154.081 228.546 147.727C251.749 141.372 276.438 143.259 298.405 153.066C320.373 162.874 338.261 179.995 349.021 201.512C355.165 213.716 358.827 227.018 359.795 240.647C360.764 254.276 359.019 267.962 354.663 280.912V280.912ZM271.463 188.626C270.853 187.407 269.942 186.363 268.816 185.595C267.69 184.827 266.386 184.359 265.028 184.236C263.67 184.113 262.304 184.339 261.058 184.893C259.812 185.447 258.729 186.31 257.91 187.4L247.242 201.623C240.503 210.61 232.595 218.658 223.728 225.555L206.358 239.065L185.6 249.447C178.519 252.974 172.996 258.998 170.096 266.358C167.197 273.718 167.127 281.892 169.901 289.3C172.674 296.708 178.094 302.827 185.113 306.474C192.133 310.12 200.255 311.037 207.911 309.047L221.477 326.489C225.334 331.449 231.004 334.673 237.238 335.452C243.473 336.231 249.761 334.502 254.721 330.645C259.681 326.788 262.905 321.118 263.684 314.884C264.463 308.649 262.734 302.361 258.877 297.401L253.563 290.57C270.603 285.325 288.564 283.768 306.252 286.002C307.689 286.181 309.147 285.967 310.472 285.383C311.796 284.799 312.938 283.866 313.774 282.684C314.61 281.502 315.11 280.116 315.22 278.672C315.33 277.228 315.046 275.782 314.399 274.487L271.463 188.626ZM207.063 292.379C205.184 293.319 203.138 293.879 201.042 294.028C198.946 294.177 196.841 293.912 194.848 293.247C192.854 292.583 191.011 291.532 189.424 290.155C187.837 288.779 186.536 287.103 185.596 285.224C184.657 283.344 184.097 281.298 183.948 279.202C183.799 277.106 184.064 275.002 184.728 273.008C185.393 271.015 186.443 269.172 187.82 267.585C189.197 265.997 190.873 264.697 192.752 263.757L207.063 256.602L221.374 285.224L207.063 292.379ZM247.672 313.65C247.428 314.763 246.935 315.806 246.232 316.702C245.529 317.598 244.633 318.325 243.611 318.827C242.02 319.618 240.205 319.835 238.473 319.442C236.741 319.049 235.197 318.07 234.103 316.67L222.947 302.326L235.095 296.252L237.202 295.604L246.243 307.229C246.949 308.123 247.444 309.164 247.692 310.276C247.94 311.388 247.935 312.541 247.676 313.65H247.672ZM248.696 275.328L236.232 279.163L225.339 257.376L220.729 248.157L233.546 238.189C243.535 230.418 252.445 221.352 260.039 211.228L262.939 207.359L293.788 269.059C278.519 268.697 263.292 270.814 248.7 275.328H248.696ZM289.371 187.255L303.683 171.155C305.093 169.569 307.074 168.608 309.193 168.484C311.311 168.359 313.392 169.081 314.978 170.49C316.563 171.9 317.524 173.882 317.649 176C317.774 178.118 317.052 180.199 315.642 181.785L301.33 197.885C299.92 199.471 297.939 200.432 295.82 200.556C293.702 200.681 291.621 199.959 290.035 198.549C288.45 197.14 287.489 195.158 287.364 193.04C287.239 190.922 287.961 188.841 289.371 187.255ZM302.506 215.825L323.972 205.092C325.87 204.143 328.067 203.987 330.08 204.658C332.093 205.329 333.757 206.772 334.706 208.669C335.654 210.567 335.811 212.764 335.14 214.777C334.469 216.79 333.026 218.454 331.128 219.403L309.662 230.136C307.764 231.085 305.567 231.241 303.554 230.57C301.541 229.899 299.877 228.456 298.928 226.559C297.98 224.661 297.823 222.464 298.494 220.451C299.165 218.438 300.608 216.774 302.506 215.825V215.825ZM353.411 247.36C353.499 248.407 353.379 249.461 353.06 250.462C352.74 251.463 352.226 252.391 351.548 253.193C350.87 253.995 350.04 254.656 349.106 255.138C348.172 255.619 347.153 255.912 346.106 256L324.641 257.789C324.415 257.808 324.19 257.817 323.968 257.817C321.903 257.817 319.918 257.018 318.429 255.589C316.939 254.159 316.06 252.208 315.975 250.145C315.891 248.082 316.607 246.066 317.974 244.519C319.342 242.972 321.254 242.013 323.312 241.844L344.778 240.055C346.892 239.879 348.989 240.549 350.609 241.919C352.229 243.289 353.238 245.246 353.415 247.36H353.411ZM216 456C216 453.878 216.843 451.843 218.343 450.343C219.843 448.843 221.878 448 224 448H296C298.122 448 300.157 448.843 301.657 450.343C303.157 451.843 304 453.878 304 456C304 458.122 303.157 460.157 301.657 461.657C300.157 463.157 298.122 464 296 464H224C221.878 464 219.843 463.157 218.343 461.657C216.843 460.157 216 458.122 216 456ZM407.059 162.961C408.291 163.659 409.686 164.017 411.101 163.999C412.516 163.982 413.902 163.589 415.116 162.861L455.116 138.861C456.301 138.15 457.281 137.145 457.962 135.943C458.642 134.74 459 133.383 459 132.001C459 130.62 458.642 129.262 457.962 128.059C457.281 126.857 456.301 125.852 455.116 125.141L415.116 101.141C413.902 100.413 412.517 100.019 411.101 100.002C409.686 99.9837 408.291 100.342 407.059 101.039C405.827 101.736 404.802 102.748 404.089 103.971C403.376 105.194 403 106.584 403 108V156C403 157.416 403.376 158.806 404.089 160.029C404.802 161.252 405.827 162.264 407.059 162.961V162.961ZM419 122.129L435.451 132L419 141.871V122.129ZM488 296H449.889L408 275.056V204.53L442.216 184H480C482.122 184 484.157 183.157 485.657 181.657C487.157 180.157 488 178.122 488 176V88C488 85.8783 487.157 83.8434 485.657 82.3431C484.157 80.8429 482.122 80 480 80H408V46C407.991 38.0463 404.827 30.4209 399.203 24.7967C393.579 19.1726 385.954 16.009 378 16H134C126.046 16.009 118.421 19.1726 112.797 24.7967C107.173 30.4209 104.009 38.0463 104 46V80H32C29.8783 80 27.8434 80.8429 26.3431 82.3431C24.8429 83.8434 24 85.8783 24 88V176C24 178.122 24.8429 180.157 26.3431 181.657C27.8434 183.157 29.8783 184 32 184H69.784L104 204.53V275.056L62.111 296H24C21.8783 296 19.8434 296.843 18.3431 298.343C16.8429 299.843 16 301.878 16 304V392C16 394.122 16.8429 396.157 18.3431 397.657C19.8434 399.157 21.8783 400 24 400H104V466C104.009 473.954 107.173 481.579 112.797 487.203C118.421 492.827 126.046 495.991 134 496H378C385.954 495.991 393.579 492.827 399.203 487.203C404.827 481.579 407.991 473.954 408 466V400H488C490.122 400 492.157 399.157 493.657 397.657C495.157 396.157 496 394.122 496 392V304C496 301.878 495.157 299.843 493.657 298.343C492.157 296.843 490.122 296 488 296ZM472 96V168H440C438.55 168 437.127 168.394 435.884 169.14L408 185.871V176C408 173.878 407.157 171.843 405.657 170.343C404.157 168.843 402.122 168 400 168H376V96H472ZM120 46C120.004 42.2882 121.48 38.7295 124.105 36.1049C126.73 33.4802 130.288 32.004 134 32H378C381.712 32.004 385.27 33.4802 387.895 36.1049C390.52 38.7295 391.996 42.2882 392 46V48H120V46ZM76.116 169.14C74.8727 168.394 73.45 168 72 168H40V96H136V168H112C109.878 168 107.843 168.843 106.343 170.343C104.843 171.843 104 173.878 104 176V185.871L76.116 169.14ZM32 384V312H64C65.2421 312 66.4672 311.711 67.578 311.155L104 292.944V304C104 306.122 104.843 308.157 106.343 309.657C107.843 311.157 109.878 312 112 312H128V384H32ZM392 466C391.996 469.712 390.52 473.27 387.895 475.895C385.27 478.52 381.712 479.996 378 480H134C130.288 479.996 126.73 478.52 124.105 475.895C121.48 473.27 120.004 469.712 120 466V432H392V466ZM392 416H120V400H136C138.122 400 140.157 399.157 141.657 397.657C143.157 396.157 144 394.122 144 392V304C144 301.878 143.157 299.843 141.657 298.343C140.157 296.843 138.122 296 136 296H120V184H144C146.122 184 148.157 183.157 149.657 181.657C151.157 180.157 152 178.122 152 176V88C152 85.8783 151.157 83.8434 149.657 82.3431C148.157 80.8429 146.122 80 144 80H120V64H392V80H368C365.878 80 363.843 80.8429 362.343 82.3431C360.843 83.8434 360 85.8783 360 88V176C360 178.122 360.843 180.157 362.343 181.657C363.843 183.157 365.878 184 368 184H392V296H376C373.878 296 371.843 296.843 370.343 298.343C368.843 299.843 368 301.878 368 304V392C368 394.122 368.843 396.157 370.343 397.657C371.843 399.157 373.878 400 376 400H392V416ZM480 384H384V380.944L422.42 361.734L434.343 373.657C435.53 374.845 437.061 375.629 438.718 375.898C440.376 376.167 442.076 375.908 443.578 375.157L480 356.944V384ZM480 339.056L441.58 358.266L429.657 346.343C428.47 345.155 426.939 344.371 425.282 344.102C423.624 343.833 421.924 344.092 420.422 344.843L384 363.056V312H400C402.122 312 404.157 311.157 405.657 309.657C407.157 308.157 408 306.122 408 304V292.944L444.422 311.155C445.533 311.711 446.758 312 448 312H480V339.056ZM72 136C72 137.582 71.5308 139.129 70.6518 140.445C69.7727 141.76 68.5233 142.786 67.0615 143.391C65.5997 143.997 63.9911 144.155 62.4393 143.846C60.8874 143.538 59.462 142.776 58.3431 141.657C57.2243 140.538 56.4624 139.113 56.1537 137.561C55.845 136.009 56.0035 134.4 56.609 132.939C57.2145 131.477 58.2398 130.227 59.5554 129.348C60.871 128.469 62.4177 128 64 128C66.1217 128 68.1566 128.843 69.6569 130.343C71.1571 131.843 72 133.878 72 136ZM96 136C96 137.582 95.5308 139.129 94.6518 140.445C93.7727 141.76 92.5233 142.786 91.0615 143.391C89.5997 143.997 87.9911 144.155 86.4393 143.846C84.8874 143.538 83.462 142.776 82.3431 141.657C81.2243 140.538 80.4624 139.113 80.1537 137.561C79.845 136.009 80.0035 134.4 80.609 132.939C81.2145 131.477 82.2398 130.227 83.5554 129.348C84.871 128.469 86.4177 128 88 128C90.1217 128 92.1566 128.843 93.6569 130.343C95.1571 131.843 96 133.878 96 136ZM445 318C447.571 318 450.085 318.762 452.222 320.191C454.36 321.619 456.026 323.65 457.01 326.025C457.994 328.401 458.252 331.014 457.75 333.536C457.249 336.058 456.01 338.374 454.192 340.192C452.374 342.01 450.058 343.249 447.536 343.75C445.014 344.252 442.401 343.994 440.025 343.01C437.65 342.026 435.619 340.36 434.191 338.222C432.762 336.085 432 333.571 432 331C432 327.552 433.37 324.246 435.808 321.808C438.246 319.37 441.552 318 445 318ZM104 136C104 134.418 104.469 132.871 105.348 131.555C106.227 130.24 107.477 129.214 108.939 128.609C110.4 128.003 112.009 127.845 113.561 128.154C115.113 128.462 116.538 129.224 117.657 130.343C118.776 131.462 119.538 132.887 119.846 134.439C120.155 135.991 119.997 137.6 119.391 139.061C118.786 140.523 117.76 141.773 116.445 142.652C115.129 143.531 113.582 144 112 144C109.878 144 107.843 143.157 106.343 141.657C104.843 140.157 104 138.122 104 136ZM96.358 355.236C97.6627 356.909 98.2493 359.032 97.9889 361.138C97.7284 363.243 96.6421 365.159 94.969 366.464C90.7726 369.755 85.5931 371.543 80.26 371.541C79.2571 371.541 78.2552 371.479 77.26 371.355C72.5494 370.771 68.1177 368.804 64.5252 365.702C60.9327 362.6 58.3407 358.502 57.077 353.927C55.8133 349.351 55.9347 344.504 57.4258 339.998C58.9169 335.491 61.7107 331.529 65.454 328.61C67.1274 327.305 69.2505 326.719 71.3562 326.98C73.462 327.241 75.3779 328.327 76.6825 330C77.9871 331.674 78.5735 333.797 78.3128 335.903C78.052 338.008 76.9654 339.924 75.292 341.229C74.4581 341.873 73.7598 342.676 73.2369 343.59C72.7141 344.505 72.3771 345.514 72.2453 346.56C72.1136 347.605 72.1896 348.666 72.4691 349.682C72.7486 350.698 73.226 351.649 73.874 352.48C74.5219 353.311 75.3276 354.005 76.2448 354.524C77.162 355.042 78.1726 355.375 79.2186 355.502C80.2646 355.629 81.3253 355.548 82.34 355.264C83.3546 354.98 84.3031 354.498 85.131 353.846C86.8042 352.542 88.9269 351.955 91.0323 352.216C93.1378 352.477 95.0534 353.563 96.358 355.236V355.236Z" fill="url(#paint0_linear_13_32588)"/>
<defs>
<linearGradient id="paint0_linear_13_32588" x1="60.343" y1="439.657" x2="451.657" y2="48.343" gradientUnits="userSpaceOnUse">
<stop stop-color="#41DFD0"/>
<stop offset="1" stop-color="#EE83EF"/>
</linearGradient>
</defs>
</svg>
